<?xml version="1.0" standalone="yes"?>
<svg width="128" height="128">
<path style="fill:#000000; stroke:none;" d="M0 0L0 68L1 68L2 65L13 72C15.5839 66.0036 20.2238 60.9774 22.6721 55C25.1888 48.8555 23.0651 44.3383 29.0432 39.2778C33.1482 35.8028 38.4331 35.8119 43 33.3657C52.7105 28.1646 60.5969 23.4062 72 23.0432C97.1476 22.2428 113.996 48.3698 119 70L120 70L121 67L125 92L128 92L128 0L0 0z"/>
<path style="fill:#66cbcb; stroke:none;" d="M34 8L36 18L37 18L37 8L34 8z"/>
<path style="fill:#6ecece; stroke:none;" d="M24 26L28 24L23 9C14.2986 12.0858 20.7506 20.4327 24 26z"/>
<path style="fill:#427e7e; stroke:none;" d="M34.3333 9.66666L34.6667 10.3333L34.3333 9.66666z"/>
<path style="fill:#2c5858; stroke:none;" d="M35.3333 14.6667L35.6667 15.3333L35.3333 14.6667z"/>
<path style="fill:#478e8e; stroke:none;" d="M37 14L36 22L37 22L37 14z"/>
<path style="fill:#68cdcd; stroke:none;" d="M37 19L37 23L38 23L37 19z"/>
<path style="fill:#4a8d8d; stroke:none;" d="M27.3333 21.6667L27.6667 22.3333L27.3333 21.6667z"/>
<path style="fill:#527f93; stroke:none;" d="M67 23L67 24L79 24L67 23z"/>
<path style="fill:#236e81; stroke:none;" d="M60.6667 24.3333L61.3333 24.6667L60.6667 24.3333z"/>
<path style="fill:#8bbfd2; stroke:none;" d="M5 102L4 102C4.04719 96.2999 4.74342 90.4942 6.29784 85C7.40532 81.0855 11.1613 75.1124 10.1867 71.044C9.29746 67.3316 3.56182 64.595 1.02778 68.3218C-1.22222 71.6308 0 78.1878 0 82C0 92.4809 -4.33157 115.648 4 123C4.37868 104.653 11.5672 84.6881 22.4784 70C26.1136 65.1065 30.6871 58.2374 37 57L44 49L45 48L44 46C52.6857 45.6417 69.0127 47.7654 75.8665 54.2284C84.2776 62.1598 88.5945 78.8886 90 90C99.3235 90.1924 105.165 92.1964 114 88L109 93L109 94L116 93C116 80.6002 117.289 67.7511 112.547 56C101.856 29.5083 73.8822 13.0166 47.0201 30.2824C41.5779 33.7804 41.612 41.2281 36.9599 45.9846C33.1728 49.8566 28.1041 51.614 24.3256 55.2747C12.6402 66.5957 5.33172 85.9284 5 102z"/>
<path style="fill:#335479; stroke:none;" d="M81.6667 24.3333L82.3333 24.6667L81.6667 24.3333z"/>
<path style="fill:#308ca3; stroke:none;" d="M57.6667 25.3333L58.3333 25.6667L57.6667 25.3333z"/>
<path style="fill:#1d3358; stroke:none;" d="M87.6667 26.3333L88.3333 26.6667L87.6667 26.3333z"/>
<path style="fill:#319bbb; stroke:none;" d="M52.6667 27.3333L53.3333 27.6667L52.6667 27.3333z"/>
<path style="fill:#4e8381; stroke:none;" d="M10 33L10 36L11 36L10 33z"/>
<path style="fill:#82dcda; stroke:none;" d="M11 34L15 40L11 34z"/>
<path style="fill:#374b52; stroke:none;" d="M41.3333 34.6667L41.6667 35.3333L41.3333 34.6667z"/>
<path style="fill:#cfcfcf; stroke:none;" d="M36 35L36 36L41 36L36 35z"/>
<path style="fill:#3b6362; stroke:none;" d="M13 36L14 37L13 36z"/>
<path style="fill:#19191a; stroke:none;" d="M24 53L25 53L28 42C32.5439 42.3855 34.3855 40.5439 34 36C26.8685 38.8001 21.0842 45.1587 24 53z"/>
<path style="fill:#656565; stroke:none;" d="M34.3333 36.6667L34.6667 37.3333L34.3333 36.6667z"/>
<path style="fill:#ffffff; stroke:none;" d="M35 36L25 52C32.8103 50.4888 40.1506 43.7786 42 36L35 36z"/>
<path style="fill:#38525b; stroke:none;" d="M42 36L39 44L40 44L42 36z"/>
<path style="fill:#5588b9; stroke:none;" d="M101 36L105 41L101 36z"/>
<path style="fill:#528b89; stroke:none;" d="M15.3333 38.6667L15.6667 39.3333L15.3333 38.6667z"/>
<path style="fill:#5769a3; stroke:none;" d="M105 41L114.254 62L116 93L121 93C121 76.3625 119.436 52.1481 105 41z"/>
<path style="fill:#787879; stroke:none;" d="M28.6667 42.3333L29.3333 42.6667L28.6667 42.3333z"/>
<path style="fill:#8b8a89; stroke:none;" d="M38 43L39 44L38 43z"/>
<path style="fill:#9c9c9d; stroke:none;" d="M27 44L28 45L27 44z"/>
<path style="fill:#a4a3a2; stroke:none;" d="M37 44L38 45L37 44z"/>
<path style="fill:#1b2225; stroke:none;" d="M38 44L39 45L38 44z"/>
<path style="fill:#a5a3a3; stroke:none;" d="M36 45L37 46L36 45z"/>
<path style="fill:#1c2123; stroke:none;" d="M37 45L38 46L37 45z"/>
<path style="fill:#354950; stroke:none;" d="M46 45L46 46L50 48L46 45z"/>
<path style="fill:#949292; stroke:none;" d="M35 46L36 47L35 46z"/>
<path style="fill:#1b2124; stroke:none;" d="M36 46L37 47L36 46z"/>
<path style="fill:#474b4e; stroke:none;" d="M44.6667 46.3333L45.3333 46.6667L44.6667 46.3333z"/>
<path style="fill:#bbb7b6; stroke:none;" d="M46.6667 46.3333L47.3333 46.6667L46.6667 46.3333z"/>
<path style="fill:#4b6a75; stroke:none;" d="M25 54L36 47L25 54z"/>
<path style="fill:#ffffff; stroke:none;" d="M44 54L51 52C53.5499 56.5638 65.4065 58.1658 70 56C73.3205 61.3454 78.3204 57.2274 73.8326 53.7377C68.0301 49.2256 42.1933 43.0261 44 54z"/>
<path style="fill:#374247; stroke:none;" d="M50 48L50 49L60 48.8572L78 56C71.2348 47.4646 59.6701 47.81 50 48z"/>
<path style="fill:#1f292c; stroke:none;" d="M42 48L43 49L42 48z"/>
<path style="fill:#a09f9e; stroke:none;" d="M31 49L32 50L31 49z"/>
<path style="fill:#4f2c2e; stroke:none;" d="M41 49L43 53L41 49z"/>
<path style="fill:#7f7e7e; stroke:none;" d="M42.3333 49.6667L42.6667 50.3333L42.3333 49.6667z"/>
<path style="fill:#cccac9; stroke:none;" d="M52.6667 50.3333L53.3333 50.6667L52.6667 50.3333z"/>
<path style="fill:#979494; stroke:none;" d="M63 50L63 51L66 51L63 50z"/>
<path style="fill:#854145; stroke:none;" d="M39 52C34.9413 58.6315 29.7864 65.9455 32 74L33 74L39 52z"/>
<path style="fill:#ce6c72; stroke:none;" d="M40 52C38.0895 56.4337 28.9089 68.4243 33.8318 73.1991C36.7553 76.0346 44.0094 69.7684 47 68.6196C57.7975 64.472 67.4987 70.193 78 72L78 59C74.4062 60.8677 72.2106 61.8606 70 58C65.1747 59.4496 62.6455 59.6978 60 55C55.5212 56.3448 53.1759 56.7631 50 53C46.4337 54.4116 44.8862 54.6179 42 52L40 52z"/>
<path style="fill:#888a89; stroke:none;" d="M43 52L44 53L43 52z"/>
<path style="fill:#472628; stroke:none;" d="M43 53C45.2347 55.5097 47.2489 54.4553 50 53C51.9856 56.6002 54.1109 57.0278 58 56L58 55L51 52L43 53z"/>
<path style="fill:#283a42; stroke:none;" d="M93 53L93 54C107.38 51.3716 111.235 61.1451 108 73C118.945 62.0322 105.445 49.3228 93 53z"/>
<path style="fill:#3ea1d0; stroke:none;" d="M24 53L15 68C18.7182 64.8365 24.4352 58.0593 24 53z"/>
<path style="fill:#ffffff; stroke:none;" d="M95.0046 53.8727C82.1879 58.8356 91.1007 78.6764 103.985 74.3573C117.72 69.7526 107.785 48.924 95.0046 53.8727z"/>
<path style="fill:#8e8c8c; stroke:none;" d="M100.667 53.3333L101.333 53.6667L100.667 53.3333z"/>
<path style="fill:#7d7e7e; stroke:none;" d="M57 54L58 55L57 54z"/>
<path style="fill:#361c1d; stroke:none;" d="M58 54L58 55C62.3385 58.9641 64.2211 60.4299 70 58C71.7128 63.1392 74.3676 59.8821 78 61L79 61L79 56L72 61L70 56L58 54z"/>
<path style="fill:#585656; stroke:none;" d="M87 61L88 61L93 54L87 61z"/>
<path style="fill:#8f8e8d; stroke:none;" d="M93 54L94 55L93 54z"/>
<path style="fill:#a2a4a4; stroke:none;" d="M61 55L62 56L61 55z"/>
<path style="fill:#ffffff; stroke:none;" d="M35 56C20.6621 67.6837 11.9823 84.3535 7.15201 102C4.91266 110.181 2.55774 119.368 11.1705 124.485C19.3498 129.345 28.8595 128 38 128L89 128C93.0889 105.988 91.8935 82.6447 81 63L80 63C79.9938 72.3619 78.8885 87.0312 66 86.4892C60.2665 86.2481 54.3199 82.5216 49 80.5872C43.7464 78.6769 36.0188 77.8245 32.6073 72.892C28.5847 67.0761 35.9658 61.7983 35 56z"/>
<path style="fill:#9c9c9d; stroke:none;" d="M101.667 56.3333L102.333 56.6667L101.667 56.3333z"/>
<path style="fill:#949494; stroke:none;" d="M99 57L100 58L99 57z"/>
<path style="fill:#0b0c0c; stroke:none;" d="M105 62C103.641 53.856 95.7777 61.2819 105 62z"/>
<path style="fill:#999999; stroke:none;" d="M104 57L105 58L104 57z"/>
<path style="fill:#858787; stroke:none;" d="M65 58L66 59L65 58z"/>
<path style="fill:#969797; stroke:none;" d="M71 59L72 60L71 59z"/>
<path style="fill:#747979; stroke:none;" d="M79 59L79 73L80 73L79 59z"/>
<path style="fill:#3f4141; stroke:none;" d="M105 59L101 62L101 63L106 63L105 59z"/>
<path style="fill:#c8c9c9; stroke:none;" d="M72.6667 60.3333L73.3333 60.6667L72.6667 60.3333z"/>
<path style="fill:#a4a2a2; stroke:none;" d="M88 60L88 65L89 65L88 60z"/>
<path style="fill:#6f383c; stroke:none;" d="M78 61L78 70L79 70L78 61z"/>
<path style="fill:#343435; stroke:none;" d="M87 61C87.2868 67.5788 88.6668 73.8581 96 75L96 74L87 61z"/>
<path style="fill:#5a7c87; stroke:none;" d="M2 65L2 66L5 66L2 65z"/>
<path style="fill:#9a9d9d; stroke:none;" d="M31.3333 66.6667L31.6667 67.3333L31.3333 66.6667z"/>
<path style="fill:#f6aaa3; stroke:none;" d="M37 76C50.9212 78.881 74.9666 95.3701 78 72C65.9561 68.7139 44.5243 60.7039 37 76z"/>
<path style="fill:#042b36; stroke:none;" d="M120 67L122 94L128 95L125 92C124.415 84.5873 124.825 72.8945 120 67z"/>
<path style="fill:#106397; stroke:none;" d="M11 70L7 85L8 85C9.55767 80.3956 13.4897 74.6029 11 70z"/>
<path style="fill:#3b85b6; stroke:none;" d="M13.3333 70.6667L13.6667 71.3333L13.3333 70.6667z"/>
<path style="fill:#332b2b; stroke:none;" d="M78 70L78 77L79 77L78 70z"/>
<path style="fill:#959594; stroke:none;" d="M90 70L91 71L90 70z"/>
<path style="fill:#8f8e8e; stroke:none;" d="M107 72L108 73L107 72z"/>
<path style="fill:#949393; stroke:none;" d="M106 73L107 74L106 73z"/>
<path style="fill:#171d1f; stroke:none;" d="M107 73L108 74L107 73z"/>
<path style="fill:#00ffff; stroke:none;" d="M124 73L125 74L124 73z"/>
<path style="fill:#505557; stroke:none;" d="M33 74L33 75C45.0086 81.3277 62.714 88.8422 76 84L76 83C60.0823 85.3402 48.287 78.171 33 74z"/>
<path style="fill:#45636e; stroke:none;" d="M95 76L98 74L95 76z"/>
<path style="fill:#b1b0b0; stroke:none;" d="M98.6667 74.3333L99.3333 74.6667L98.6667 74.3333z"/>
<path style="fill:#415d67; stroke:none;" d="M105 76L108 75L105 76z"/>
<path style="fill:#90635e; stroke:none;" d="M77.3333 75.6667L77.6667 76.3333L77.3333 75.6667z"/>
<path style="fill:#253339; stroke:none;" d="M97 75L97 76L105 76L97 75z"/>
<path style="fill:#6b97a6; stroke:none;" d="M100 76L100 77L104 77L100 76z"/>
<path style="fill:#2e383a; stroke:none;" d="M77 77L75 83L77 77z"/>
<path style="fill:#b2b5b6; stroke:none;" d="M78.3333 77.6667L78.6667 78.3333L78.3333 77.6667z"/>
<path style="fill:#020c0e; stroke:none;" d="M104 88C108.239 87.0031 111.593 85.272 113 81C108.977 82.2745 105.409 83.8458 104 88z"/>
<path style="fill:#005555; stroke:none;" d="M126.333 82.6667L126.667 83.3333L126.333 82.6667z"/>
<path style="fill:#2889b5; stroke:none;" d="M6 84L4 102L5 102L6 84z"/>
<path style="fill:#276286; stroke:none;" d="M121 85L121 93L116 93L116 94L122 94L121 85z"/>
<path style="fill:#c6cbcc; stroke:none;" d="M64 86L64 87L69 87L64 86z"/>
<path style="fill:#071b20; stroke:none;" d="M105 95L114 88L105 95z"/>
<path style="fill:#8ccede; stroke:none;" d="M90 90L89 128C95.2818 128 104.065 129.585 110 127.397C123.316 122.485 128 107.257 128 95L97 98L97 97L104 95C102.176 89.4994 95.0081 90.0415 90 90z"/>
<path style="fill:#35535c; stroke:none;" d="M108.667 90.3333L109.333 90.6667L108.667 90.3333z"/>
<path style="fill:#5083ae; stroke:none;" d="M104 92L97 97L97 98L125 95L125 94L104 92z"/>
<path style="fill:#2d7ba4; stroke:none;" d="M119 120L128 110L119 120z"/>
<path style="fill:#114f65; stroke:none;" d="M127 111L117 128L121 128L127 111z"/>
<path style="fill:#000000; stroke:none;" d="M127 115L121 128L128 128L127 115z"/>
<path style="fill:#dee4ea; stroke:none;" d="M4 116L4 128L17 128L17 127L4 116z"/>
<path style="fill:#5092be; stroke:none;" d="M0 119L0 128L4 128L0 119z"/>
<path style="fill:#6088bc; stroke:none;" d="M118 120L111 128L117 128L118 120z"/>
</svg>
